<?xml version="1.0" encoding="utf-8"?>
<!-- Generator: Adobe Illustrator 22.1.0, SVG Export Plug-In . SVG Version: 6.00 Build 0)  -->
<svg version="1.1" id="Layer_1" xmlns="http://www.w3.org/2000/svg" xmlns:xlink="http://www.w3.org/1999/xlink" x="0px" y="0px"
	 viewBox="0 0 140 48.8" style="enable-background:new 0 0 140 48.8;" xml:space="preserve">
<style type="text/css">
	.st0{clip-path:url(#SVGID_2_);}
</style>
<title>Asset 2</title>
<g>
	<defs>
		<rect id="SVGID_1_" x="2.5" y="2.2" width="135.1" height="44.3"/>
	</defs>
	<clipPath id="SVGID_2_">
		<use xlink:href="#SVGID_1_"  style="overflow:visible;"/>
	</clipPath>
	<path class="st0" d="M24.8,2.2c-12.3,0-22.3,10-22.3,22.3c0,12.3,10,22.3,22.3,22.3c12.3,0,22.3-10,22.3-22.3
		C47.1,12.2,37.1,2.2,24.8,2.2 M39.6,24.2L26.9,37h-4.2L9.9,24.2V20l5.3-5.3h4.2l4,4v6.8h4.7V23H26v-4.2l4-4h4.2l5.3,5.3V24.2z"/>
	<polygon class="st0" points="67.2,15.2 67.2,23.1 66.6,23.1 66.6,16.7 63.3,21.9 60.1,16.7 60.1,23.1 59.4,23.1 59.4,15.2 
		59.8,15.2 63.3,20.8 66.8,15.2 	"/>
	<path class="st0" d="M75.7,19.9c0,1.8-1.1,3.2-3.2,3.2c-2.1,0-3.2-1.4-3.2-3.2v-4.7h0.6v4.6c0,1.6,0.9,2.7,2.6,2.7
		c1.7,0,2.6-1.1,2.6-2.7v-4.6h0.6V19.9z"/>
	<polygon class="st0" points="84.4,15.2 84.4,23.1 84,23.1 78.4,16.4 78.4,23.1 77.7,23.1 77.7,15.2 78.1,15.2 83.7,21.9 83.7,15.2 
			"/>
	<rect x="86.4" y="15.2" class="st0" width="0.7" height="7.9"/>
	<path class="st0" d="M95.6,21.2l0.5,0.4c-0.8,0.9-1.9,1.5-3.2,1.5c-2.3,0-4.1-1.8-4.1-4c0-2.2,1.9-4,4.1-4c1.3,0,2.5,0.6,3.2,1.5
		l-0.5,0.4c-0.6-0.8-1.6-1.3-2.7-1.3c-1.9,0-3.5,1.5-3.5,3.4c0,1.9,1.6,3.4,3.5,3.4C94,22.5,95,22,95.6,21.2"/>
	<path class="st0" d="M98.4,23.1h-0.7v-7.9h0.7V23.1z M98.3,14.5h-0.5l1.7-1.8l0.7,0.1L98.3,14.5z"/>
	<path class="st0" d="M103.5,15.2c2.1,0,2.8,1.2,2.8,2.6c0,2-1.3,2.8-3.1,2.8h-2.1v2.6h-0.7v-7.9H103.5z M103.2,20
		c1.5,0,2.5-0.7,2.5-2.1c0-1.1-0.6-2-2.2-2h-2.3V20H103.2z"/>
	<rect x="107.8" y="15.2" class="st0" width="0.7" height="7.9"/>
	<path class="st0" d="M118.5,19.2c0,2.2-1.9,4-4.2,4c-2.3,0-4.2-1.8-4.2-4c0-2.2,1.9-4,4.2-4C116.6,15.2,118.5,17,118.5,19.2
		 M117.8,19.2c0-1.9-1.6-3.4-3.5-3.4c-1.9,0-3.5,1.5-3.5,3.4c0,1.9,1.6,3.4,3.5,3.4C116.2,22.6,117.8,21,117.8,19.2"/>
	<path class="st0" d="M126.6,23.1h-2.8v-7.9h2.6c2.2,0,4,1.8,4,4C130.3,21.3,128.7,23,126.6,23.1 M126.5,22.5
		c1.7-0.1,3.1-1.6,3.1-3.4c0-1.9-1.5-3.4-3.3-3.4h-1.9v6.7H126.5z"/>
	<polygon class="st0" points="137.5,22.5 137.5,23.1 132,23.1 132,15.2 137.3,15.2 137.3,15.8 132.6,15.8 132.6,19 136.6,19 
		136.6,19.6 132.6,19.6 132.6,22.5 	"/>
	<path class="st0" d="M64.6,32.3h2v3c-0.9,0.7-2.1,1.2-3.5,1.2c-2.3,0-4.2-1.8-4.2-4.1c0-2.2,1.9-4.1,4.2-4.1c1.3,0,2.4,0.4,3.2,1.1
		L65,30.8c-0.5-0.4-1.2-0.7-1.9-0.7c-1.2,0-2.2,1-2.2,2.2c0,1.3,1,2.3,2.2,2.3c0.6,0,1-0.1,1.5-0.4v-0.4V32.3z"/>
	<path class="st0" d="M75,33.1c0,1.8-1.2,3.3-3.6,3.3s-3.6-1.4-3.6-3.3v-4.7h1.9v4.2c0,1.4,0.6,2,1.7,2c1.1,0,1.7-0.6,1.7-2v-4.2H75
		V33.1z"/>
	<rect x="76.4" y="28.4" class="st0" width="2" height="7.9"/>
	<polygon class="st0" points="88.2,28.4 88.2,36.3 86.2,36.3 86.2,32.7 84,35.5 81.9,32.7 81.9,36.3 79.9,36.3 79.9,28.4 80.9,28.4 
		84,32.6 87.2,28.4 	"/>
	<path class="st0" d="M95,34.9h-3.2l-0.6,1.4H89l3.8-7.9h1l3.9,7.9h-2.1L95,34.9z M92.4,33.3h1.8l-0.9-2L92.4,33.3z"/>
	<path class="st0" d="M101.9,34.5c0,0-0.1,0-0.2,0h-1.2v1.8h-2v-7.9h3.6c2.4,0,3.2,1.4,3.2,3c0,1.3-0.5,2.3-1.5,2.8l1.8,2.2h-2.4
		L101.9,34.5z M100.5,32.9h1.1c1.2,0,1.7-0.7,1.7-1.4c0-0.7-0.4-1.4-1.5-1.4h-1.3V32.9z"/>
	<path class="st0" d="M111.7,34.9h-3.2l-0.6,1.4h-2.1l3.8-7.9h1l3.9,7.9h-2.1L111.7,34.9z M107.7,28c0-1.2,0.6-1.9,1.4-1.9
		c0.7,0,1.4,0.4,1.8,0.4c0.3,0,0.6-0.3,0.7-0.7l0.8,0.1c0,1.1-0.6,1.9-1.4,1.9c-0.7,0-1.4-0.5-1.8-0.5c-0.3,0-0.6,0.3-0.7,0.6
		L107.7,28z M109.2,33.3h1.8l-0.9-2L109.2,33.3z"/>
	<polygon class="st0" points="121.5,34.6 121.5,36.3 115.2,36.3 115.2,28.4 121.3,28.4 121.3,30.1 117.2,30.1 117.2,31.7 
		120.6,31.7 120.6,33.3 117.2,33.3 117.2,34.6 	"/>
	<path class="st0" d="M128.9,33.9c0,1.6-1.2,2.5-3.1,2.5c-1.4,0-2.1-0.1-3.4-0.8l0.7-1.5c1,0.5,1.8,0.6,2.7,0.6
		c0.7,0,1.1-0.2,1.1-0.7c0-0.4-0.3-0.6-1.4-0.8c-1.7-0.4-3-0.8-3-2.5c0-1.4,1.1-2.5,3-2.5c1.3,0,2.3,0.3,3.1,0.7l-0.8,1.6
		c-0.7-0.3-1.7-0.5-2.4-0.5c-0.6,0-0.9,0.3-0.9,0.6c0,0.4,0.4,0.6,1.5,0.9C127.7,31.8,128.9,32.4,128.9,33.9"/>
	<path class="st0" d="M75,33.1c0,1.8-1.2,3.3-3.6,3.3c-2.4,0-3.6-1.4-3.6-3.3v-4.7h1.9v4.2c0,1.4,0.6,2,1.7,2s1.7-0.6,1.7-2v-4.2H75
		V33.1z"/>
	<rect x="76.4" y="28.4" class="st0" width="2" height="7.9"/>
	<polygon class="st0" points="88.2,28.4 88.2,36.3 86.2,36.3 86.2,32.7 84,35.5 81.9,32.7 81.9,36.3 79.9,36.3 79.9,28.4 80.9,28.4 
		84,32.6 87.2,28.4 	"/>
	<path class="st0" d="M95,34.9h-3.2l-0.6,1.4H89l3.8-7.9h1l3.9,7.9h-2.1L95,34.9z M92.4,33.3h1.8l-0.9-2L92.4,33.3z"/>
	<path class="st0" d="M101.9,34.5c0,0-0.1,0-0.2,0h-1.2v1.8h-2v-7.9h3.6c2.4,0,3.2,1.4,3.2,3c0,1.3-0.5,2.3-1.5,2.8l1.8,2.2h-2.4
		L101.9,34.5z M100.5,32.9h1.1c1.2,0,1.7-0.7,1.7-1.4c0-0.7-0.4-1.4-1.5-1.4h-1.3V32.9z"/>
	<path class="st0" d="M111.7,34.9h-3.2l-0.6,1.4h-2.1l3.8-7.9h1l3.9,7.9h-2.1L111.7,34.9z M107.7,28c0-1.2,0.6-1.9,1.4-1.9
		c0.7,0,1.4,0.4,1.8,0.4c0.3,0,0.6-0.3,0.7-0.7l0.8,0.1c0,1.1-0.6,1.9-1.4,1.9c-0.7,0-1.4-0.5-1.8-0.5c-0.3,0-0.6,0.3-0.7,0.6
		L107.7,28z M109.2,33.3h1.8l-0.9-2L109.2,33.3z"/>
	<polygon class="st0" points="121.5,34.6 121.5,36.3 115.2,36.3 115.2,28.4 121.3,28.4 121.3,30.1 117.2,30.1 117.2,31.7 
		120.6,31.7 120.6,33.3 117.2,33.3 117.2,34.6 	"/>
	<path class="st0" d="M128.9,33.9c0,1.6-1.2,2.5-3.1,2.5c-1.4,0-2.1-0.1-3.4-0.8l0.7-1.5c1,0.5,1.8,0.6,2.7,0.6
		c0.7,0,1.1-0.2,1.1-0.7c0-0.4-0.3-0.6-1.4-0.8c-1.7-0.4-3-0.8-3-2.5c0-1.4,1.1-2.5,3-2.5c1.3,0,2.3,0.3,3.1,0.7l-0.8,1.6
		c-0.7-0.3-1.7-0.5-2.4-0.5c-0.6,0-0.9,0.3-0.9,0.6c0,0.4,0.4,0.6,1.5,0.9C127.7,31.8,128.9,32.4,128.9,33.9"/>
</g>
</svg>
